####
#
#	OBJ File Generated by LightWave3D
#	LightWave3D OBJ Export v2.3
#
####
o simplecone.obj
mtllib simplecone.mtl
g default
v -0.649519 -0.375 0.25
v 0 0 -1.25
v 0 0.75 0.25
v 0.649519 -0.375 0.25
vt 0.00874126 0.463343
vt 0.00879765 0.00874126
vt 0.00879765 0.445804
vt 0.227273 0.991202
vt 0.445804 0.463343
vt 0.463343 0.463287
vt 0.463343 0.90035
vt 0.536657 0.154429
vt 0.554196 0.00874126
vt 0.772727 0.445804
vt 0.991202 0.608974
vt 0.991259 0.00874126
vn -0.764951 -0.441644 0.468829
vn 0 0 -1
vn 0 0.883289 0.468829
vn 0.764951 -0.441644 0.468829
usemtl simplecone
s off
f 1/9/1 4/12/4 3/10/3
f 2/8/2 3/3/3 4/2/4
f 1/1/1 2/4/2 4/5/4
f 3/7/3 2/11/2 1/6/1
